<svg id="Logo_Line_5" xmlns="http://www.w3.org/2000/svg" width="875.3687" height="143.7759" viewBox="0 0 875.3687 143.7759"><defs><style>.cls-1{fill:#ebeced;}.cls-2{fill:#fff;}</style></defs><title>TM_Logo_2SVG</title><path class="cls-1" d="M440.4209,529.5469a51.5738,51.5738,0,0,0,3.9692,4.94l9.0772-9.0771a38.4776,38.4776,0,0,1,54.3052-54.3052l9.0771-9.0772a51.4839,51.4839,0,0,0-4.9394-3.9692V439.1021H500.31v-10.99H464.4155v10.99h-11.6v18.9565a51.58,51.58,0,0,0-12.3945,12.394H421.4648v11.6006h-10.99v35.8941h10.99v11.6Z" transform="translate(-45.5288 -428.1118)"/><path class="cls-2" d="M543.2607,517.9473h10.99V482.0532h-10.99V470.4526h-18.957a51.5782,51.5782,0,0,0-7.4541-8.4248l-9.0771,9.0772A38.4794,38.4794,0,1,1,453.4673,525.41l-9.0772,9.0771a51.5821,51.5821,0,0,0,8.4253,7.4541v18.9561h11.6v10.99H500.31v-10.99H511.91V541.9414a51.5685,51.5685,0,0,0,12.3935-12.3945h18.957Z" transform="translate(-45.5288 -428.1118)"/><path class="cls-2" d="M462.42,516.7314V496.99h-8.9726v-7.1855H480.374V496.99h-8.98v19.7412Z" transform="translate(-45.5288 -428.1118)"/><path class="cls-2" d="M483.9629,516.7314V489.8047H510.89v26.9267Zm17.9463-7.1787V496.99h-8.9727v12.5625Z" transform="translate(-45.5288 -428.1118)"/><path class="cls-2" d="M63.19,521.2471V482.3916H45.5288V468.249H98.5269v14.1426H80.8525v38.8555Z" transform="translate(-45.5288 -428.1118)"/><path class="cls-2" d="M105.5918,521.2471V468.249H158.59V510.65H147.98l10.61,10.5967H140.915L130.3184,510.65h-7.065v10.5967Zm35.3232-28.2588V482.3916H123.2534v10.5967Z" transform="translate(-45.5288 -428.1118)"/><path class="cls-2" d="M165.6548,521.2471V468.249h52.998v52.9981H200.978V510.65H183.3164v10.5967Zm35.3232-24.7266V482.3916H183.3164v14.1289Z" transform="translate(-45.5288 -428.1118)"/><path class="cls-2" d="M243.3794,521.2471l-17.6621-17.6612V468.249h21.1943v31.8037h10.5972V468.249h21.207v35.3369L261.041,521.2471Z" transform="translate(-45.5288 -428.1118)"/><path class="cls-2" d="M285.78,521.2471V468.249h52.998v14.1426H306.9746v7.0645h31.8037v10.5966H306.9746v7.0645h31.8037v14.13Z" transform="translate(-45.5288 -428.1118)"/><path class="cls-2" d="M345.8433,521.2471V468.249h21.1938v38.8682h28.272v14.13Z" transform="translate(-45.5288 -428.1118)"/><path class="cls-2" d="M578.1953,521.2471V468.249h14.1289l14.13,14.1426v.0127l1.7725,1.7466,15.8886-15.9019h14.1426v52.9981H620.583V492.9883l-12.3564,12.3691-12.37-12.3691v28.2588Z" transform="translate(-45.5288 -428.1118)"/><path class="cls-2" d="M645.3223,521.2471V468.249H698.32v14.1426H666.5166v7.0645H698.32v10.5966H666.5166v7.0645H698.32v14.13Z" transform="translate(-45.5288 -428.1118)"/><path class="cls-2" d="M705.3857,521.2471l24.7256-24.7266h.0137l1.76-1.7725-26.4991-26.499h28.2588l7.0645,7.0777,7.0644-7.0777h28.2715l-24.7392,24.7393h-.0127l-1.7471,1.76,26.499,26.4991H747.7734l-7.0644-7.0645-7.0645,7.0645Z" transform="translate(-45.5288 -428.1118)"/><path class="cls-2" d="M783.11,485.9238V468.249h21.1933v17.6748Zm0,35.3233v-31.791h21.1933v31.791Z" transform="translate(-45.5288 -428.1118)"/><path class="cls-2" d="M811.3691,521.2471V468.249H860.835v17.6748H843.16v-7.0649H832.5625V510.65H843.16v-7.0645H860.835v17.6612Z" transform="translate(-45.5288 -428.1118)"/><path class="cls-2" d="M867.8994,521.2471V468.249h52.9981v52.9981Zm35.3233-14.13V482.3916H885.56v24.7256Z" transform="translate(-45.5288 -428.1118)"/></svg>