<svg id="Logo_Stack_1" xmlns="http://www.w3.org/2000/svg" width="938.7519" height="262.3106" viewBox="0 0 938.7519 262.3106"><defs><style>.cls-1{fill:#adece4;}.cls-2{fill:#80c6be;}.cls-3{fill:#f3e16c;}.cls-4{fill:#e2c72e;}.cls-5{fill:#fff;}</style></defs><title>TM_Logo_1SVG</title><polygon class="cls-1" points="65.796 135.772 77.542 124.025 128.752 175.235 163.779 140.208 133.744 110.173 122.011 121.905 140.129 140.024 128.383 151.77 98.518 121.905 133.744 86.68 187.272 140.208 128.752 198.728 65.796 135.772"/><polygon class="cls-2" points="75.038 121.859 133.558 63.339 196.514 126.296 184.768 138.042 133.558 86.832 98.53 121.859 128.566 151.894 140.298 140.161 122.181 122.044 133.927 110.297 163.791 140.161 128.566 175.387 75.038 121.859"/><path class="cls-3" d="M76.0688,553.9072a93.9929,93.9929,0,0,0,7.2417,9.0117l16.5606-16.5595a70.2,70.2,0,0,1,99.0762-99.0767l16.56-16.56a93.9858,93.9858,0,0,0-9.0122-7.2422V388.896H185.3315V368.8447H119.8452V388.896H98.6812V423.48a94.1261,94.1261,0,0,0-22.6124,22.6128H41.4844v21.164H21.4336v65.4864H41.4844v21.164Z" transform="translate(-21.4336 -368.8447)"/><path class="cls-4" d="M263.6924,532.7432h20.0513V467.2568H263.6924v-21.164h-34.584a94.1342,94.1342,0,0,0-13.6006-15.3706l-16.56,16.56a70.2032,70.2032,0,1,1-99.0762,99.0767L83.3105,562.9189A94.0815,94.0815,0,0,0,98.6812,576.52v34.585h21.164v20.0508h65.4863V611.1045h21.1641V576.52a94.1167,94.1167,0,0,0,22.6128-22.6123h34.584Z" transform="translate(-21.4336 -368.8447)"/><path class="cls-5" d="M330.9341,476.9087v-68.99H304.3994V386.6709h79.624v21.2476H357.4692v68.99Z" transform="translate(-21.4336 -368.8447)"/><path class="cls-5" d="M394.6372,476.9087V386.6709h79.624V455.68h-15.94l21.2476,21.2285H453.0146L431.7856,455.68H421.1724v21.2285Zm53.07-42.4561V407.9185H421.1724v26.5341Z" transform="translate(-21.4336 -368.8447)"/><path class="cls-5" d="M490.1821,476.9087V386.6709h79.6245v90.2378H543.252V455.68H516.7178v21.2285Zm53.07-42.4561V407.9185H516.7178v26.5341Z" transform="translate(-21.4336 -368.8447)"/><path class="cls-5" d="M606.9551,476.9087l-26.5342-26.5352V386.6709H612.26V455.68h15.9238V386.6709h31.86v63.7026l-26.5556,26.5352Z" transform="translate(-21.4336 -368.8447)"/><path class="cls-5" d="M670.6592,476.9087V386.6709h79.624v21.2476H702.5v15.92h47.7832V439.76H702.5v15.92h47.7832v21.2285Z" transform="translate(-21.4336 -368.8447)"/><path class="cls-5" d="M760.8955,476.9087V386.6709h31.8408V455.68h42.4756v21.2285Z" transform="translate(-21.4336 -368.8447)"/><path class="cls-5" d="M869.5332,476.397V433.1885h-16.62V419.8813h49.8691v13.3072H886.1514V476.397Z" transform="translate(-21.4336 -368.8447)"/><path class="cls-5" d="M909.4287,476.397V419.8813h49.8672V476.397Zm33.2383-13.2949V433.1885h-16.62v29.9136Z" transform="translate(-21.4336 -368.8447)"/><path class="cls-5" d="M304.3994,612.6543V502.2705h25.9673l25.9663,25.9912v.0254l3.2568,3.21,29.2017-29.2266h25.9912V612.6543H382.3008v-64.918L359.59,570.47l-22.7329-22.7334v64.918Z" transform="translate(-21.4336 -368.8447)"/><path class="cls-5" d="M427.7666,612.6543V502.2705H525.166v25.9912H466.7168v19.4746H525.166v19.4756H466.7168v19.4766H525.166v25.9658Z" transform="translate(-21.4336 -368.8447)"/><path class="cls-5" d="M538.15,612.6543l51.9336-51.9326h.0244l3.2344-3.2588L538.15,502.2705h58.4267l19.4747,19.499,19.499-19.499h58.4248L642.042,554.23h-.0244l-3.2324,3.2334,55.19,55.1914H635.5508l-19.499-19.4736-19.4747,19.4736Z" transform="translate(-21.4336 -368.8447)"/><path class="cls-5" d="M706.9619,612.6543V502.2705h38.9492V612.6543Z" transform="translate(-21.4336 -368.8447)"/><path class="cls-5" d="M758.8965,612.6543V502.2705h90.9082v32.4834H817.3184V521.77H797.8447v71.4112h19.4737V580.1963h32.4863v32.458Z" transform="translate(-21.4336 -368.8447)"/><path class="cls-5" d="M862.7852,612.6543V502.2705h97.4V612.6543Zm64.916-25.9658V528.2617H895.2441v58.4268Z" transform="translate(-21.4336 -368.8447)"/></svg>